<svg xmlns="http://www.w3.org/2000/svg" xmlns:xlink="http://www.w3.org/1999/xlink" width="200" zoomAndPan="magnify" viewBox="0 0 150 30.000001" height="40" preserveAspectRatio="xMidYMid meet" version="1.0"><defs><g/><clipPath id="5cd020077d"><path d="M 0.277344 8 L 14 8 L 14 21 L 0.277344 21 Z M 0.277344 8 " clip-rule="nonzero"/></clipPath><clipPath id="ab53a3333e"><path d="M 86 4 L 90 4 L 90 8 L 86 8 Z M 86 4 " clip-rule="nonzero"/></clipPath><clipPath id="baaf134a8f"><path d="M 86.429688 6.9375 L 88.851562 3.886719 L 90.347656 5.074219 L 87.921875 8.125 Z M 86.429688 6.9375 " clip-rule="nonzero"/></clipPath><clipPath id="7adb17d66a"><path d="M 88.246094 4.648438 C 88.582031 4.230469 89.1875 4.152344 89.597656 4.480469 C 90.011719 4.808594 90.074219 5.414062 89.738281 5.835938 L 88.527344 7.359375 C 88.195312 7.78125 87.589844 7.859375 87.175781 7.53125 C 86.761719 7.203125 86.699219 6.59375 87.035156 6.175781 Z M 88.246094 4.648438 " clip-rule="nonzero"/></clipPath><clipPath id="f2512c05c1"><path d="M 0.675781 0 L 4 0 L 4 3.898438 L 0.675781 3.898438 Z M 0.675781 0 " clip-rule="nonzero"/></clipPath><clipPath id="9bd5d57a8c"><path d="M 0.429688 2.9375 L 2.851562 -0.113281 L 4.347656 1.074219 L 1.921875 4.125 Z M 0.429688 2.9375 " clip-rule="nonzero"/></clipPath><clipPath id="055fc68f50"><path d="M 2.246094 0.648438 C 2.582031 0.230469 3.1875 0.152344 3.597656 0.480469 C 4.011719 0.808594 4.074219 1.414062 3.738281 1.835938 L 2.527344 3.359375 C 2.195312 3.78125 1.589844 3.859375 1.175781 3.53125 C 0.761719 3.203125 0.699219 2.59375 1.035156 2.175781 Z M 2.246094 0.648438 " clip-rule="nonzero"/></clipPath><clipPath id="27cfb472ff"><rect x="0" width="4" y="0" height="4"/></clipPath><clipPath id="55a45335dd"><rect x="0" width="142" y="0" height="29"/></clipPath></defs><g transform="matrix(1, 0, 0, 1, 4, 0.000000000000005773)"><g clip-path="url(#55a45335dd)"><g clip-path="url(#5cd020077d)"><g fill="#ffffff" fill-opacity="1"><g transform="translate(0.45161, 20.632838)"><g><path d="M 0 0 L 3.9375 -10.75 C 4.132812 -11.28125 4.457031 -11.679688 4.90625 -11.953125 C 5.363281 -12.234375 5.878906 -12.375 6.453125 -12.375 C 7.015625 -12.375 7.519531 -12.242188 7.96875 -11.984375 C 8.425781 -11.722656 8.753906 -11.316406 8.953125 -10.765625 L 12.90625 0 L 9.765625 0 L 9 -2.34375 L 3.84375 -2.34375 L 3.046875 0 Z M 4.59375 -4.765625 L 8.25 -4.765625 L 6.703125 -9.609375 C 6.679688 -9.679688 6.648438 -9.726562 6.609375 -9.75 C 6.566406 -9.78125 6.519531 -9.796875 6.46875 -9.796875 C 6.40625 -9.796875 6.351562 -9.773438 6.3125 -9.734375 C 6.269531 -9.703125 6.242188 -9.660156 6.234375 -9.609375 Z M 4.59375 -4.765625 "/></g></g></g></g><g fill="#ffffff" fill-opacity="1"><g transform="translate(13.360218, 20.632838)"><g><path d="M 9.625 0.203125 C 8.894531 0.203125 8.238281 0.046875 7.65625 -0.265625 C 7.082031 -0.585938 6.625 -1.03125 6.28125 -1.59375 C 5.945312 -2.164062 5.78125 -2.8125 5.78125 -3.53125 L 5.78125 -8.84375 C 5.78125 -9.03125 5.734375 -9.195312 5.640625 -9.34375 C 5.554688 -9.5 5.4375 -9.625 5.28125 -9.71875 C 5.132812 -9.8125 4.96875 -9.859375 4.78125 -9.859375 C 4.59375 -9.859375 4.421875 -9.8125 4.265625 -9.71875 C 4.117188 -9.625 4 -9.5 3.90625 -9.34375 C 3.820312 -9.195312 3.78125 -9.03125 3.78125 -8.84375 L 3.78125 0 L 0.9375 0 L 0.9375 -8.640625 C 0.9375 -9.367188 1.097656 -10.007812 1.421875 -10.5625 C 1.753906 -11.113281 2.210938 -11.550781 2.796875 -11.875 C 3.390625 -12.207031 4.050781 -12.375 4.78125 -12.375 C 5.519531 -12.375 6.175781 -12.207031 6.75 -11.875 C 7.332031 -11.550781 7.789062 -11.113281 8.125 -10.5625 C 8.46875 -10.007812 8.640625 -9.367188 8.640625 -8.640625 L 8.640625 -3.3125 C 8.640625 -3.132812 8.679688 -2.96875 8.765625 -2.8125 C 8.859375 -2.65625 8.976562 -2.53125 9.125 -2.4375 C 9.269531 -2.351562 9.429688 -2.3125 9.609375 -2.3125 C 9.796875 -2.3125 9.96875 -2.351562 10.125 -2.4375 C 10.28125 -2.53125 10.40625 -2.65625 10.5 -2.8125 C 10.59375 -2.96875 10.640625 -3.132812 10.640625 -3.3125 L 10.640625 -12.15625 L 13.46875 -12.15625 L 13.46875 -3.53125 C 13.46875 -2.8125 13.296875 -2.164062 12.953125 -1.59375 C 12.617188 -1.03125 12.160156 -0.585938 11.578125 -0.265625 C 11.003906 0.046875 10.351562 0.203125 9.625 0.203125 Z M 9.625 0.203125 "/></g></g></g><g fill="#ffffff" fill-opacity="1"><g transform="translate(27.78033, 20.632838)"><g><path d="M 1.0625 0 L 1.0625 -12.15625 L 3.984375 -12.15625 L 3.984375 -7.390625 L 8.71875 -7.390625 L 8.71875 -12.15625 L 11.640625 -12.15625 L 11.640625 0 L 8.71875 0 L 8.71875 -4.953125 L 3.984375 -4.953125 L 3.984375 0 Z M 1.0625 0 "/></g></g></g><g fill="#ffffff" fill-opacity="1"><g transform="translate(40.480455, 20.632838)"><g><path d="M 0 0 L 3.9375 -10.75 C 4.132812 -11.28125 4.457031 -11.679688 4.90625 -11.953125 C 5.363281 -12.234375 5.878906 -12.375 6.453125 -12.375 C 7.015625 -12.375 7.519531 -12.242188 7.96875 -11.984375 C 8.425781 -11.722656 8.753906 -11.316406 8.953125 -10.765625 L 12.90625 0 L 9.765625 0 L 9 -2.34375 L 3.84375 -2.34375 L 3.046875 0 Z M 4.59375 -4.765625 L 8.25 -4.765625 L 6.703125 -9.609375 C 6.679688 -9.679688 6.648438 -9.726562 6.609375 -9.75 C 6.566406 -9.78125 6.519531 -9.796875 6.46875 -9.796875 C 6.40625 -9.796875 6.351562 -9.773438 6.3125 -9.734375 C 6.269531 -9.703125 6.242188 -9.660156 6.234375 -9.609375 Z M 4.59375 -4.765625 "/></g></g></g><g fill="#ffffff" fill-opacity="1"><g transform="translate(53.389062, 20.632838)"><g><path d="M 9.625 0.203125 C 8.894531 0.203125 8.238281 0.046875 7.65625 -0.265625 C 7.082031 -0.585938 6.625 -1.03125 6.28125 -1.59375 C 5.945312 -2.164062 5.78125 -2.8125 5.78125 -3.53125 L 5.78125 -8.84375 C 5.78125 -9.03125 5.734375 -9.195312 5.640625 -9.34375 C 5.554688 -9.5 5.4375 -9.625 5.28125 -9.71875 C 5.132812 -9.8125 4.96875 -9.859375 4.78125 -9.859375 C 4.59375 -9.859375 4.421875 -9.8125 4.265625 -9.71875 C 4.117188 -9.625 4 -9.5 3.90625 -9.34375 C 3.820312 -9.195312 3.78125 -9.03125 3.78125 -8.84375 L 3.78125 0 L 0.9375 0 L 0.9375 -8.640625 C 0.9375 -9.367188 1.097656 -10.007812 1.421875 -10.5625 C 1.753906 -11.113281 2.210938 -11.550781 2.796875 -11.875 C 3.390625 -12.207031 4.050781 -12.375 4.78125 -12.375 C 5.519531 -12.375 6.175781 -12.207031 6.75 -11.875 C 7.332031 -11.550781 7.789062 -11.113281 8.125 -10.5625 C 8.46875 -10.007812 8.640625 -9.367188 8.640625 -8.640625 L 8.640625 -3.3125 C 8.640625 -3.132812 8.679688 -2.96875 8.765625 -2.8125 C 8.859375 -2.65625 8.976562 -2.53125 9.125 -2.4375 C 9.269531 -2.351562 9.429688 -2.3125 9.609375 -2.3125 C 9.796875 -2.3125 9.96875 -2.351562 10.125 -2.4375 C 10.28125 -2.53125 10.40625 -2.65625 10.5 -2.8125 C 10.59375 -2.96875 10.640625 -3.132812 10.640625 -3.3125 L 10.640625 -12.15625 L 13.46875 -12.15625 L 13.46875 -3.53125 C 13.46875 -2.8125 13.296875 -2.164062 12.953125 -1.59375 C 12.617188 -1.03125 12.160156 -0.585938 11.578125 -0.265625 C 11.003906 0.046875 10.351562 0.203125 9.625 0.203125 Z M 9.625 0.203125 "/></g></g></g><g fill="#ffffff" fill-opacity="1"><g transform="translate(67.809175, 20.632838)"><g><path d="M 9.8125 3.78125 C 9.09375 3.78125 8.476562 3.648438 7.96875 3.390625 C 7.457031 3.140625 7.066406 2.785156 6.796875 2.328125 C 6.535156 1.867188 6.40625 1.332031 6.40625 0.71875 C 6.40625 0.582031 6.40625 0.445312 6.40625 0.3125 C 6.414062 0.1875 6.4375 0.046875 6.46875 -0.109375 C 5.570312 -0.117188 4.757812 -0.285156 4.03125 -0.609375 C 3.300781 -0.929688 2.671875 -1.367188 2.140625 -1.921875 C 1.617188 -2.484375 1.210938 -3.128906 0.921875 -3.859375 C 0.640625 -4.597656 0.5 -5.382812 0.5 -6.21875 C 0.5 -7.070312 0.644531 -7.867188 0.9375 -8.609375 C 1.238281 -9.359375 1.664062 -10.015625 2.21875 -10.578125 C 2.769531 -11.140625 3.429688 -11.578125 4.203125 -11.890625 C 4.984375 -12.210938 5.847656 -12.375 6.796875 -12.375 C 7.742188 -12.375 8.601562 -12.222656 9.375 -11.921875 C 10.15625 -11.617188 10.820312 -11.1875 11.375 -10.625 C 11.9375 -10.070312 12.363281 -9.429688 12.65625 -8.703125 C 12.945312 -7.972656 13.09375 -7.179688 13.09375 -6.328125 L 13.09375 0.359375 C 13.09375 0.972656 12.972656 1.539062 12.734375 2.0625 C 12.503906 2.582031 12.144531 3 11.65625 3.3125 C 11.164062 3.625 10.550781 3.78125 9.8125 3.78125 Z M 9.65625 1.296875 C 9.875 1.296875 10.046875 1.207031 10.171875 1.03125 C 10.296875 0.851562 10.359375 0.617188 10.359375 0.328125 L 10.359375 -2.5 C 10.109375 -2.289062 9.894531 -2.078125 9.71875 -1.859375 C 9.539062 -1.640625 9.398438 -1.410156 9.296875 -1.171875 C 9.191406 -0.929688 9.113281 -0.6875 9.0625 -0.4375 C 9.007812 -0.1875 8.984375 0.0664062 8.984375 0.328125 C 8.984375 0.535156 9.007812 0.710938 9.0625 0.859375 C 9.125 1.003906 9.207031 1.113281 9.3125 1.1875 C 9.425781 1.257812 9.539062 1.296875 9.65625 1.296875 Z M 6.6875 -2.578125 C 6.8125 -2.578125 6.925781 -2.582031 7.03125 -2.59375 C 7.144531 -2.601562 7.265625 -2.617188 7.390625 -2.640625 C 7.597656 -2.953125 7.835938 -3.257812 8.109375 -3.5625 C 8.390625 -3.875 8.703125 -4.175781 9.046875 -4.46875 C 9.398438 -4.757812 9.785156 -5.03125 10.203125 -5.28125 L 10.203125 -6.40625 C 10.203125 -6.90625 10.113281 -7.367188 9.9375 -7.796875 C 9.769531 -8.222656 9.535156 -8.59375 9.234375 -8.90625 C 8.929688 -9.21875 8.570312 -9.460938 8.15625 -9.640625 C 7.75 -9.816406 7.300781 -9.90625 6.8125 -9.90625 C 6.320312 -9.90625 5.867188 -9.8125 5.453125 -9.625 C 5.046875 -9.445312 4.6875 -9.191406 4.375 -8.859375 C 4.070312 -8.523438 3.835938 -8.132812 3.671875 -7.6875 C 3.503906 -7.238281 3.421875 -6.753906 3.421875 -6.234375 C 3.421875 -5.710938 3.5 -5.234375 3.65625 -4.796875 C 3.8125 -4.359375 4.035156 -3.972656 4.328125 -3.640625 C 4.628906 -3.304688 4.976562 -3.046875 5.375 -2.859375 C 5.78125 -2.679688 6.21875 -2.585938 6.6875 -2.578125 Z M 6.6875 -2.578125 "/></g></g></g><g fill="#ffffff" fill-opacity="1"><g transform="translate(81.708084, 20.632838)"><g><path d="M 0 0 L 3.9375 -10.75 C 4.132812 -11.28125 4.457031 -11.679688 4.90625 -11.953125 C 5.363281 -12.234375 5.878906 -12.375 6.453125 -12.375 C 7.015625 -12.375 7.519531 -12.242188 7.96875 -11.984375 C 8.425781 -11.722656 8.753906 -11.316406 8.953125 -10.765625 L 12.90625 0 L 9.765625 0 L 9 -2.34375 L 3.84375 -2.34375 L 3.046875 0 Z M 4.59375 -4.765625 L 8.25 -4.765625 L 6.703125 -9.609375 C 6.679688 -9.679688 6.648438 -9.726562 6.609375 -9.75 C 6.566406 -9.78125 6.519531 -9.796875 6.46875 -9.796875 C 6.40625 -9.796875 6.351562 -9.773438 6.3125 -9.734375 C 6.269531 -9.703125 6.242188 -9.660156 6.234375 -9.609375 Z M 4.59375 -4.765625 "/></g></g></g><g fill="#ff3131" fill-opacity="1"><g transform="translate(94.620088, 20.632838)"><g><path d="M 2.328125 0.203125 C 1.867188 0.203125 1.472656 0.0390625 1.140625 -0.28125 C 0.804688 -0.613281 0.640625 -1.003906 0.640625 -1.453125 C 0.640625 -1.921875 0.804688 -2.316406 1.140625 -2.640625 C 1.472656 -2.972656 1.867188 -3.140625 2.328125 -3.140625 C 2.773438 -3.140625 3.164062 -2.972656 3.5 -2.640625 C 3.832031 -2.316406 4 -1.921875 4 -1.453125 C 4 -1.148438 3.921875 -0.875 3.765625 -0.625 C 3.617188 -0.375 3.421875 -0.171875 3.171875 -0.015625 C 2.921875 0.128906 2.640625 0.203125 2.328125 0.203125 Z M 2.328125 0.203125 "/></g></g></g><g fill="#ffffff" fill-opacity="1"><g transform="translate(99.260245, 20.632838)"><g><path d="M 7.3125 0 C 6.570312 0 5.921875 -0.160156 5.359375 -0.484375 C 4.796875 -0.816406 4.351562 -1.257812 4.03125 -1.8125 C 3.71875 -2.375 3.5625 -3 3.5625 -3.6875 L 3.5625 -9.734375 L 0.265625 -9.734375 L 0.265625 -12.15625 L 9.765625 -12.15625 L 9.765625 -9.734375 L 6.484375 -9.734375 L 6.484375 -3.421875 C 6.484375 -3.148438 6.570312 -2.914062 6.75 -2.71875 C 6.9375 -2.53125 7.171875 -2.4375 7.453125 -2.4375 L 8.40625 -2.4375 L 8.40625 0 Z M 7.3125 0 "/></g></g></g><g fill="#ffffff" fill-opacity="1"><g transform="translate(109.28483, 20.632838)"><g><path d="M 4.3125 0 C 3.625 0 3 -0.15625 2.4375 -0.46875 C 1.882812 -0.789062 1.441406 -1.222656 1.109375 -1.765625 C 0.785156 -2.304688 0.625 -2.914062 0.625 -3.59375 C 0.625 -4.101562 0.734375 -4.582031 0.953125 -5.03125 C 1.179688 -5.476562 1.488281 -5.863281 1.875 -6.1875 C 1.507812 -6.5 1.21875 -6.867188 1 -7.296875 C 0.78125 -7.722656 0.671875 -8.175781 0.671875 -8.65625 C 0.671875 -9.320312 0.832031 -9.914062 1.15625 -10.4375 C 1.488281 -10.96875 1.925781 -11.382812 2.46875 -11.6875 C 3.007812 -12 3.613281 -12.15625 4.28125 -12.15625 L 9.40625 -12.15625 L 9.40625 -9.734375 L 4.71875 -9.734375 C 4.5 -9.734375 4.296875 -9.679688 4.109375 -9.578125 C 3.929688 -9.472656 3.785156 -9.332031 3.671875 -9.15625 C 3.566406 -8.976562 3.515625 -8.773438 3.515625 -8.546875 C 3.515625 -8.328125 3.566406 -8.128906 3.671875 -7.953125 C 3.785156 -7.773438 3.929688 -7.632812 4.109375 -7.53125 C 4.296875 -7.4375 4.5 -7.390625 4.71875 -7.390625 L 8.8125 -7.390625 L 8.8125 -4.953125 L 4.8125 -4.953125 C 4.570312 -4.953125 4.351562 -4.894531 4.15625 -4.78125 C 3.957031 -4.664062 3.800781 -4.515625 3.6875 -4.328125 C 3.570312 -4.140625 3.515625 -3.925781 3.515625 -3.6875 C 3.515625 -3.457031 3.570312 -3.242188 3.6875 -3.046875 C 3.800781 -2.859375 3.957031 -2.710938 4.15625 -2.609375 C 4.351562 -2.503906 4.570312 -2.453125 4.8125 -2.453125 L 9.40625 -2.453125 L 9.40625 0 Z M 4.3125 0 "/></g></g></g><g fill="#ffffff" fill-opacity="1"><g transform="translate(119.361538, 20.632838)"><g><path d="M 6.96875 0 C 5.96875 0 5.066406 -0.148438 4.265625 -0.453125 C 3.472656 -0.765625 2.796875 -1.195312 2.234375 -1.75 C 1.679688 -2.3125 1.253906 -2.957031 0.953125 -3.6875 C 0.648438 -4.425781 0.5 -5.222656 0.5 -6.078125 C 0.5 -6.929688 0.648438 -7.726562 0.953125 -8.46875 C 1.253906 -9.207031 1.6875 -9.851562 2.25 -10.40625 C 2.8125 -10.957031 3.488281 -11.382812 4.28125 -11.6875 C 5.070312 -12 5.96875 -12.15625 6.96875 -12.15625 L 8.84375 -12.15625 L 8.84375 -9.734375 L 7.03125 -9.734375 C 6.488281 -9.734375 5.992188 -9.640625 5.546875 -9.453125 C 5.097656 -9.265625 4.710938 -9.003906 4.390625 -8.671875 C 4.078125 -8.347656 3.835938 -7.960938 3.671875 -7.515625 C 3.503906 -7.078125 3.421875 -6.597656 3.421875 -6.078125 C 3.421875 -5.554688 3.503906 -5.078125 3.671875 -4.640625 C 3.835938 -4.203125 4.078125 -3.816406 4.390625 -3.484375 C 4.710938 -3.148438 5.097656 -2.890625 5.546875 -2.703125 C 5.992188 -2.523438 6.488281 -2.4375 7.03125 -2.4375 L 8.84375 -2.4375 L 8.84375 0 Z M 6.96875 0 "/></g></g></g><g fill="#ffffff" fill-opacity="1"><g transform="translate(128.795419, 20.632838)"><g><path d="M 1.0625 0 L 1.0625 -12.15625 L 3.984375 -12.15625 L 3.984375 -7.390625 L 8.71875 -7.390625 L 8.71875 -12.15625 L 11.640625 -12.15625 L 11.640625 0 L 8.71875 0 L 8.71875 -4.953125 L 3.984375 -4.953125 L 3.984375 0 Z M 1.0625 0 "/></g></g></g><g clip-path="url(#ab53a3333e)"><g clip-path="url(#baaf134a8f)"><g clip-path="url(#7adb17d66a)"><g transform="matrix(1, 0, 0, 1, 86, 4)"><g clip-path="url(#27cfb472ff)"><g clip-path="url(#f2512c05c1)"><g clip-path="url(#9bd5d57a8c)"><g clip-path="url(#055fc68f50)"><path fill="#ffea03" d="M 0.429688 2.9375 L 2.851562 -0.113281 L 4.347656 1.074219 L 1.921875 4.125 Z M 0.429688 2.9375 " fill-opacity="1" fill-rule="nonzero"/></g></g></g></g></g></g></g></g></g></g></svg>