<svg xmlns="http://www.w3.org/2000/svg" xmlns:xlink="http://www.w3.org/1999/xlink" width="500" zoomAndPan="magnify" viewBox="0 0 375 194.87999" height="250" preserveAspectRatio="xMidYMid meet" version="1.0"><defs><g/><clipPath id="d86da5927f"><path d="M 0.117188 27 L 374.882812 27 L 374.882812 158 L 0.117188 158 Z M 0.117188 27 " clip-rule="nonzero"/></clipPath><clipPath id="2a922dcd9d"><rect x="0" width="296" y="0" height="57"/></clipPath><clipPath id="cbdf2cf2de"><path d="M 0.355469 72 L 374.882812 72 L 374.882812 98 L 0.355469 98 Z M 0.355469 72 " clip-rule="nonzero"/></clipPath><clipPath id="75b2cd858b"><path d="M 0.179688 70.390625 L 373.816406 61.082031 L 374.605469 92.683594 L 0.964844 101.992188 Z M 0.179688 70.390625 " clip-rule="nonzero"/></clipPath><clipPath id="5016772e08"><path d="M 0.179688 70.390625 L 373.816406 61.082031 L 374.605469 92.683594 L 0.964844 101.992188 Z M 0.179688 70.390625 " clip-rule="nonzero"/></clipPath><clipPath id="082baf3a63"><path d="M 315 2 L 339 2 L 339 21 L 315 21 Z M 315 2 " clip-rule="nonzero"/></clipPath><clipPath id="0473ade640"><path d="M 314.082031 7.433594 L 339.328125 1.085938 L 343.410156 17.316406 L 318.164062 23.664062 Z M 314.082031 7.433594 " clip-rule="nonzero"/></clipPath><clipPath id="5ceee12a64"><path d="M 314.082031 7.433594 L 339.328125 1.085938 L 343.410156 17.316406 L 318.164062 23.664062 Z M 314.082031 7.433594 " clip-rule="nonzero"/></clipPath><clipPath id="f789bc2919"><path d="M 73 104 L 321 104 L 321 130.101562 L 73 130.101562 Z M 73 104 " clip-rule="nonzero"/></clipPath><clipPath id="7bce7b4fc2"><path d="M 0.03125 2 L 18 2 L 18 20 L 0.03125 20 Z M 0.03125 2 " clip-rule="nonzero"/></clipPath><clipPath id="015d3b9b28"><rect x="0" width="248" y="0" height="27"/></clipPath><clipPath id="a6bd628cf4"><rect x="0" width="375" y="0" height="131"/></clipPath></defs><g clip-path="url(#d86da5927f)"><g transform="matrix(1, 0, 0, 1, 0.000000000000000056, 27)"><g clip-path="url(#a6bd628cf4)"><g transform="matrix(1, 0, 0, 1, 40, 23)"><g clip-path="url(#2a922dcd9d)"><g fill="#1762a7" fill-opacity="1"><g transform="translate(1.153568, 42.338799)"><g><path d="M 29.78125 0 L 27.5 -4.90625 L 12.109375 -4.90625 L 9.8125 0 L 0.0625 0 L 0.0625 -1.453125 L 17.625 -39.546875 L 21.921875 -39.546875 L 39.546875 -1.453125 L 39.546875 0 Z M 24.265625 -13.4375 L 19.75 -23.703125 L 15.34375 -13.4375 Z M 24.265625 -13.4375 "/></g></g></g><g fill="#1762a7" fill-opacity="1"><g transform="translate(40.861635, 42.338799)"><g><path d="M 34.96875 0.0625 L 15.28125 -19.1875 L 15.28125 0 C 13.570312 0 11.851562 0 10.125 0 C 8.394531 0 6.675781 0 4.96875 0 L 4.96875 -39.21875 L 8.59375 -39.21875 L 28.34375 -19.90625 L 28.34375 -39.046875 C 30.050781 -39.046875 31.75 -39.046875 33.4375 -39.046875 C 35.132812 -39.046875 36.835938 -39.046875 38.546875 -39.046875 L 38.546875 0.0625 Z M 34.96875 0.0625 "/></g></g></g><g fill="#1762a7" fill-opacity="1"><g transform="translate(84.362053, 42.338799)"><g><path d="M 37.484375 -39.046875 L 37.484375 0 C 35.773438 0 34.070312 0 32.375 0 C 30.6875 0 28.988281 0 27.28125 0 L 27.28125 -15.671875 L 15.234375 -15.671875 L 15.234375 0 C 13.515625 0 11.800781 0 10.09375 0 C 8.382812 0 6.691406 0 5.015625 0 L 5.015625 -39.046875 C 6.691406 -39.046875 8.382812 -39.046875 10.09375 -39.046875 C 11.800781 -39.046875 13.515625 -39.046875 15.234375 -39.046875 L 15.234375 -24.875 L 27.28125 -24.875 L 27.28125 -39.046875 C 28.988281 -39.046875 30.6875 -39.046875 32.375 -39.046875 C 34.070312 -39.046875 35.773438 -39.046875 37.484375 -39.046875 Z M 37.484375 -39.046875 "/></g></g></g><g fill="#1762a7" fill-opacity="1"><g transform="translate(126.858608, 42.338799)"><g><path d="M 29.78125 0 L 27.5 -4.90625 L 12.109375 -4.90625 L 9.8125 0 L 0.0625 0 L 0.0625 -1.453125 L 17.625 -39.546875 L 21.921875 -39.546875 L 39.546875 -1.453125 L 39.546875 0 Z M 24.265625 -13.4375 L 19.75 -23.703125 L 15.34375 -13.4375 Z M 24.265625 -13.4375 "/></g></g></g><g fill="#1762a7" fill-opacity="1"><g transform="translate(166.566676, 42.338799)"><g><path d="M 34.96875 0.0625 L 15.28125 -19.1875 L 15.28125 0 C 13.570312 0 11.851562 0 10.125 0 C 8.394531 0 6.675781 0 4.96875 0 L 4.96875 -39.21875 L 8.59375 -39.21875 L 28.34375 -19.90625 L 28.34375 -39.046875 C 30.050781 -39.046875 31.75 -39.046875 33.4375 -39.046875 C 35.132812 -39.046875 36.835938 -39.046875 38.546875 -39.046875 L 38.546875 0.0625 Z M 34.96875 0.0625 "/></g></g></g><g fill="#1762a7" fill-opacity="1"><g transform="translate(210.067094, 42.338799)"><g><path d="M 2.5625 -19.53125 C 2.5625 -22.875 3.140625 -25.789062 4.296875 -28.28125 C 5.453125 -30.769531 6.984375 -32.847656 8.890625 -34.515625 C 10.804688 -36.191406 12.945312 -37.445312 15.3125 -38.28125 C 17.675781 -39.125 20.101562 -39.546875 22.59375 -39.546875 C 25.226562 -39.546875 27.800781 -39.0625 30.3125 -38.09375 C 32.820312 -37.125 35 -35.625 36.84375 -33.59375 C 38.6875 -31.570312 39.921875 -28.945312 40.546875 -25.71875 L 30.734375 -25.71875 C 29.921875 -27.382812 28.851562 -28.582031 27.53125 -29.3125 C 26.207031 -30.039062 24.5625 -30.40625 22.59375 -30.40625 C 20.507812 -30.40625 18.738281 -29.910156 17.28125 -28.921875 C 15.832031 -27.929688 14.738281 -26.617188 14 -24.984375 C 13.257812 -23.347656 12.890625 -21.53125 12.890625 -19.53125 C 12.890625 -16.289062 13.769531 -13.691406 15.53125 -11.734375 C 17.300781 -9.785156 19.65625 -8.8125 22.59375 -8.8125 C 24.601562 -8.8125 26.273438 -9.144531 27.609375 -9.8125 C 28.953125 -10.488281 30.066406 -11.753906 30.953125 -13.609375 L 22.640625 -13.609375 L 22.640625 -22.25 L 41.109375 -22.25 C 41.222656 -20.320312 41.234375 -18.410156 41.140625 -16.515625 C 41.046875 -14.617188 40.664062 -12.722656 40 -10.828125 C 39.0625 -8.109375 37.679688 -5.921875 35.859375 -4.265625 C 34.046875 -2.609375 31.984375 -1.40625 29.671875 -0.65625 C 27.367188 0.0820312 25.007812 0.453125 22.59375 0.453125 C 20.101562 0.453125 17.675781 0.0351562 15.3125 -0.796875 C 12.945312 -1.640625 10.804688 -2.890625 8.890625 -4.546875 C 6.984375 -6.203125 5.453125 -8.273438 4.296875 -10.765625 C 3.140625 -13.253906 2.5625 -16.175781 2.5625 -19.53125 Z M 2.5625 -19.53125 "/></g></g></g><g fill="#1762a7" fill-opacity="1"><g transform="translate(254.125204, 42.338799)"><g><path d="M 29.78125 0 L 27.5 -4.90625 L 12.109375 -4.90625 L 9.8125 0 L 0.0625 0 L 0.0625 -1.453125 L 17.625 -39.546875 L 21.921875 -39.546875 L 39.546875 -1.453125 L 39.546875 0 Z M 24.265625 -13.4375 L 19.75 -23.703125 L 15.34375 -13.4375 Z M 24.265625 -13.4375 "/></g></g></g></g></g><g clip-path="url(#cbdf2cf2de)"><g clip-path="url(#75b2cd858b)"><g clip-path="url(#5016772e08)"><path fill="#ffea00" d="M 0.859375 97.609375 C 59.175781 69.027344 125.199219 77.324219 187.546875 82.953125 C 234.324219 87.054688 281.589844 90.109375 328.195312 82.71875 C 343.703125 80.390625 359.050781 76.957031 374.285156 72.914062 C 355.816406 79.789062 336.601562 84.894531 317.132812 88.253906 C 274.132812 95.710938 230.199219 93.460938 186.964844 89.808594 C 124.324219 83.972656 61.375 74.371094 0.859375 97.609375 Z M 0.859375 97.609375 " fill-opacity="1" fill-rule="nonzero"/></g></g></g><g clip-path="url(#082baf3a63)"><g clip-path="url(#0473ade640)"><g clip-path="url(#5ceee12a64)"><path fill="#ffea00" d="M 335.796875 6.484375 C 336.898438 5.632812 337.882812 4.632812 338.722656 3.515625 C 338.890625 3.304688 338.859375 2.996094 338.644531 2.828125 C 338.617188 2.804688 338.589844 2.785156 338.5625 2.769531 C 336.984375 1.976562 335.089844 2.167969 333.707031 3.265625 L 328.488281 7.402344 C 328.460938 7.421875 328.425781 7.433594 328.390625 7.429688 L 322.039062 6.9375 C 321.109375 6.972656 320.222656 7.34375 319.542969 7.984375 C 319.449219 8.066406 319.445312 8.210938 319.527344 8.304688 C 319.550781 8.332031 319.582031 8.355469 319.621094 8.367188 L 324.769531 10.070312 C 324.839844 10.09375 324.875 10.171875 324.851562 10.246094 C 324.84375 10.269531 324.828125 10.292969 324.808594 10.308594 L 320.40625 13.796875 C 320.289062 13.890625 320.128906 13.917969 319.984375 13.871094 L 316.359375 12.691406 C 316.058594 12.59375 315.738281 12.757812 315.644531 13.054688 C 315.582031 13.238281 315.621094 13.441406 315.746094 13.59375 L 318.632812 17.074219 C 318.894531 17.390625 319.308594 17.53125 319.710938 17.445312 C 321.738281 17.003906 323.644531 16.105469 325.273438 14.816406 L 328.332031 12.390625 C 328.390625 12.347656 328.476562 12.359375 328.523438 12.417969 C 328.535156 12.4375 328.546875 12.464844 328.550781 12.492188 L 329.136719 20.4375 C 329.144531 20.5625 329.253906 20.65625 329.378906 20.644531 C 329.414062 20.644531 329.449219 20.632812 329.484375 20.613281 C 330.183594 20.167969 330.710938 19.496094 330.972656 18.710938 L 332.777344 8.914062 C 332.785156 8.878906 332.800781 8.851562 332.828125 8.828125 L 335.796875 6.484375 " fill-opacity="1" fill-rule="nonzero"/></g></g></g><g clip-path="url(#f789bc2919)"><g transform="matrix(1, 0, 0, 1, 73, 104)"><g clip-path="url(#015d3b9b28)"><g clip-path="url(#7bce7b4fc2)"><g fill="#1762a7" fill-opacity="1"><g transform="translate(0.397052, 19.397578)"><g><path d="M 4.609375 -17.34375 L 8.671875 -7.53125 L 8.796875 -7.53125 L 12.765625 -17.34375 L 17.03125 -17.34375 L 17.03125 -16.671875 L 9.671875 0.203125 L 7.78125 0.203125 L 0.34375 -16.671875 L 0.34375 -17.34375 Z M 4.609375 -17.34375 "/></g></g></g></g><g fill="#1762a7" fill-opacity="1"><g transform="translate(36.637559, 19.397578)"><g><path d="M 7.359375 -3.890625 L 9.5625 -3.890625 L 9.5625 0 L 0.765625 0 L 0.765625 -3.890625 L 2.96875 -3.890625 L 2.96875 -13.484375 L 0.9375 -13.484375 L 0.9375 -17.34375 L 9.390625 -17.34375 L 9.390625 -13.484375 L 7.359375 -13.484375 Z M 7.359375 -3.890625 "/></g></g></g><g fill="#1762a7" fill-opacity="1"><g transform="translate(65.740502, 19.397578)"><g><path d="M 13.234375 0 L 12.21875 -2.1875 L 5.375 -2.1875 L 4.359375 0 L 0.03125 0 L 0.03125 -0.640625 L 7.828125 -17.5625 L 9.734375 -17.5625 L 17.5625 -0.640625 L 17.5625 0 Z M 10.78125 -5.96875 L 8.765625 -10.53125 L 6.8125 -5.96875 Z M 10.78125 -5.96875 "/></g></g></g><g fill="#1762a7" fill-opacity="1"><g transform="translate(102.22885, 19.397578)"><g><path d="M 1.140625 -8.671875 C 1.140625 -10.160156 1.394531 -11.457031 1.90625 -12.5625 C 2.414062 -13.664062 3.097656 -14.585938 3.953125 -15.328125 C 4.804688 -16.078125 5.753906 -16.632812 6.796875 -17 C 7.847656 -17.375 8.925781 -17.5625 10.03125 -17.5625 C 11.207031 -17.5625 12.351562 -17.347656 13.46875 -16.921875 C 14.582031 -16.492188 15.546875 -15.828125 16.359375 -14.921875 C 17.179688 -14.023438 17.734375 -12.859375 18.015625 -11.421875 L 13.65625 -11.421875 C 13.289062 -12.171875 12.8125 -12.703125 12.21875 -13.015625 C 11.632812 -13.335938 10.90625 -13.5 10.03125 -13.5 C 9.113281 -13.5 8.332031 -13.28125 7.6875 -12.84375 C 7.039062 -12.40625 6.550781 -11.820312 6.21875 -11.09375 C 5.882812 -10.375 5.71875 -9.566406 5.71875 -8.671875 C 5.71875 -7.234375 6.109375 -6.082031 6.890625 -5.21875 C 7.679688 -4.351562 8.726562 -3.921875 10.03125 -3.921875 C 10.925781 -3.921875 11.671875 -4.066406 12.265625 -4.359375 C 12.859375 -4.660156 13.351562 -5.222656 13.75 -6.046875 L 10.0625 -6.046875 L 10.0625 -9.890625 L 18.265625 -9.890625 C 18.316406 -9.023438 18.320312 -8.171875 18.28125 -7.328125 C 18.238281 -6.492188 18.066406 -5.65625 17.765625 -4.8125 C 17.359375 -3.601562 16.75 -2.628906 15.9375 -1.890625 C 15.125 -1.160156 14.203125 -0.628906 13.171875 -0.296875 C 12.148438 0.0351562 11.101562 0.203125 10.03125 0.203125 C 8.925781 0.203125 7.847656 0.015625 6.796875 -0.359375 C 5.753906 -0.734375 4.804688 -1.285156 3.953125 -2.015625 C 3.097656 -2.753906 2.414062 -3.675781 1.90625 -4.78125 C 1.394531 -5.882812 1.140625 -7.179688 1.140625 -8.671875 Z M 1.140625 -8.671875 "/></g></g></g><g fill="#1762a7" fill-opacity="1"><g transform="translate(140.650287, 19.397578)"><g><path d="M 13.03125 -17.34375 C 13.03125 -16.695312 13.03125 -16.039062 13.03125 -15.375 C 13.03125 -14.71875 13.03125 -14.050781 13.03125 -13.375 C 12.175781 -13.375 11.425781 -13.375 10.78125 -13.375 C 10.132812 -13.375 9.492188 -13.375 8.859375 -13.375 C 8.222656 -13.375 7.472656 -13.375 6.609375 -13.375 L 6.609375 -10.921875 L 12.515625 -10.921875 C 12.515625 -10.265625 12.515625 -9.609375 12.515625 -8.953125 C 12.515625 -8.304688 12.515625 -7.648438 12.515625 -6.984375 L 6.609375 -6.984375 C 6.609375 -6.472656 6.609375 -5.96875 6.609375 -5.46875 C 6.609375 -4.976562 6.609375 -4.46875 6.609375 -3.9375 C 7.472656 -3.9375 8.238281 -3.9375 8.90625 -3.9375 C 9.570312 -3.9375 10.25 -3.9375 10.9375 -3.9375 C 11.625 -3.9375 12.398438 -3.9375 13.265625 -3.9375 C 13.265625 -3.289062 13.265625 -2.632812 13.265625 -1.96875 C 13.265625 -1.3125 13.265625 -0.65625 13.265625 0 C 11.898438 0 10.628906 0 9.453125 0 C 8.285156 0 7.117188 0 5.953125 0 C 4.796875 0 3.546875 0 2.203125 0 C 2.203125 -2.90625 2.203125 -5.800781 2.203125 -8.6875 C 2.203125 -11.582031 2.203125 -14.46875 2.203125 -17.34375 C 3.546875 -17.34375 4.78125 -17.34375 5.90625 -17.34375 C 7.039062 -17.34375 8.171875 -17.34375 9.296875 -17.34375 C 10.429688 -17.34375 11.675781 -17.34375 13.03125 -17.34375 Z M 13.03125 -17.34375 "/></g></g></g><g fill="#1762a7" fill-opacity="1"><g transform="translate(174.362916, 19.397578)"><g><path d="M 15.53125 0.03125 L 6.796875 -8.53125 L 6.796875 0 C 6.035156 0 5.269531 0 4.5 0 C 3.726562 0 2.960938 0 2.203125 0 L 2.203125 -17.421875 L 3.8125 -17.421875 L 12.59375 -8.84375 L 12.59375 -17.34375 C 13.351562 -17.34375 14.109375 -17.34375 14.859375 -17.34375 C 15.609375 -17.34375 16.363281 -17.34375 17.125 -17.34375 L 17.125 0.03125 Z M 15.53125 0.03125 "/></g></g></g><g fill="#1762a7" fill-opacity="1"><g transform="translate(212.536512, 19.397578)"><g><path d="M 5.28125 -5.296875 C 5.28125 -4.859375 5.460938 -4.503906 5.828125 -4.234375 C 6.191406 -3.972656 6.644531 -3.789062 7.1875 -3.6875 C 7.726562 -3.59375 8.265625 -3.582031 8.796875 -3.65625 C 9.335938 -3.726562 9.789062 -3.882812 10.15625 -4.125 C 10.519531 -4.363281 10.703125 -4.691406 10.703125 -5.109375 C 10.703125 -5.515625 10.554688 -5.828125 10.265625 -6.046875 C 9.984375 -6.265625 9.601562 -6.414062 9.125 -6.5 C 8.644531 -6.59375 8.113281 -6.65625 7.53125 -6.6875 C 6.28125 -6.789062 5.179688 -7.019531 4.234375 -7.375 C 3.296875 -7.726562 2.566406 -8.273438 2.046875 -9.015625 C 1.523438 -9.765625 1.253906 -10.765625 1.234375 -12.015625 C 1.222656 -13.085938 1.453125 -14.003906 1.921875 -14.765625 C 2.390625 -15.523438 3.015625 -16.132812 3.796875 -16.59375 C 4.585938 -17.0625 5.457031 -17.367188 6.40625 -17.515625 C 7.351562 -17.671875 8.300781 -17.671875 9.25 -17.515625 C 10.207031 -17.367188 11.082031 -17.0625 11.875 -16.59375 C 12.664062 -16.132812 13.300781 -15.523438 13.78125 -14.765625 C 14.257812 -14.003906 14.488281 -13.085938 14.46875 -12.015625 C 13.695312 -12.015625 12.992188 -12.015625 12.359375 -12.015625 C 11.722656 -12.015625 11.023438 -12.015625 10.265625 -12.015625 C 10.265625 -12.484375 10.101562 -12.847656 9.78125 -13.109375 C 9.46875 -13.367188 9.078125 -13.539062 8.609375 -13.625 C 8.140625 -13.707031 7.671875 -13.695312 7.203125 -13.59375 C 6.734375 -13.5 6.332031 -13.320312 6 -13.0625 C 5.664062 -12.8125 5.484375 -12.476562 5.453125 -12.0625 C 5.421875 -11.632812 5.523438 -11.300781 5.765625 -11.0625 C 6.015625 -10.820312 6.351562 -10.648438 6.78125 -10.546875 C 7.21875 -10.453125 7.691406 -10.375 8.203125 -10.3125 C 9.054688 -10.207031 9.890625 -10.078125 10.703125 -9.921875 C 11.515625 -9.765625 12.242188 -9.515625 12.890625 -9.171875 C 13.546875 -8.835938 14.0625 -8.34375 14.4375 -7.6875 C 14.820312 -7.039062 15.015625 -6.171875 15.015625 -5.078125 C 15.015625 -4.035156 14.757812 -3.140625 14.25 -2.390625 C 13.738281 -1.648438 13.066406 -1.050781 12.234375 -0.59375 C 11.398438 -0.144531 10.476562 0.148438 9.46875 0.296875 C 8.457031 0.441406 7.453125 0.4375 6.453125 0.28125 C 5.453125 0.125 4.539062 -0.179688 3.71875 -0.640625 C 2.894531 -1.109375 2.226562 -1.726562 1.71875 -2.5 C 1.21875 -3.28125 0.972656 -4.210938 0.984375 -5.296875 C 1.734375 -5.296875 2.445312 -5.296875 3.125 -5.296875 C 3.800781 -5.296875 4.519531 -5.296875 5.28125 -5.296875 Z M 5.28125 -5.296875 "/></g></g></g></g></g></g></g></g></g></svg>