<svg xmlns="http://www.w3.org/2000/svg" xmlns:xlink="http://www.w3.org/1999/xlink" width="500" zoomAndPan="magnify" viewBox="0 0 375 194.87999" height="250" preserveAspectRatio="xMidYMid meet" version="1.0"><defs><g/><clipPath id="a4f5c36642"><path d="M 37 97 L 339 97 L 339 118 L 37 118 Z M 37 97 " clip-rule="nonzero"/></clipPath><clipPath id="5751aa385b"><path d="M 36.484375 95.929688 L 337.707031 88.425781 L 338.359375 114.652344 L 37.136719 122.152344 Z M 36.484375 95.929688 " clip-rule="nonzero"/></clipPath><clipPath id="7f6d1276c1"><path d="M 36.484375 95.929688 L 337.707031 88.425781 L 338.359375 114.652344 L 37.136719 122.152344 Z M 36.484375 95.929688 " clip-rule="nonzero"/></clipPath><clipPath id="7e39d18eef"><path d="M 289 42 L 309 42 L 309 58 L 289 58 Z M 289 42 " clip-rule="nonzero"/></clipPath><clipPath id="b470a85658"><path d="M 288.429688 46.667969 L 308.054688 41.730469 L 311.347656 54.816406 L 291.71875 59.75 Z M 288.429688 46.667969 " clip-rule="nonzero"/></clipPath><clipPath id="f7f00f5877"><path d="M 288.429688 46.667969 L 308.054688 41.730469 L 311.347656 54.816406 L 291.71875 59.75 Z M 288.429688 46.667969 " clip-rule="nonzero"/></clipPath></defs><g fill="#ffffff" fill-opacity="1"><g transform="translate(69.517965, 91.856062)"><g><path d="M 24.015625 0 L 22.171875 -3.953125 L 9.765625 -3.953125 L 7.921875 0 L 0.046875 0 L 0.046875 -1.171875 L 14.203125 -31.890625 L 17.671875 -31.890625 L 31.890625 -1.171875 L 31.890625 0 Z M 19.5625 -10.84375 L 15.921875 -19.109375 L 12.359375 -10.84375 Z M 19.5625 -10.84375 "/></g></g></g><g fill="#ffffff" fill-opacity="1"><g transform="translate(101.529942, 91.856062)"><g><path d="M 28.203125 0.046875 L 12.328125 -15.46875 L 12.328125 0 C 10.941406 0 9.550781 0 8.15625 0 C 6.769531 0 5.382812 0 4 0 L 4 -31.609375 L 6.921875 -31.609375 L 22.84375 -16.046875 L 22.84375 -31.484375 C 24.21875 -31.484375 25.585938 -31.484375 26.953125 -31.484375 C 28.316406 -31.484375 29.691406 -31.484375 31.078125 -31.484375 L 31.078125 0.046875 Z M 28.203125 0.046875 "/></g></g></g><g fill="#ffffff" fill-opacity="1"><g transform="translate(136.599249, 91.856062)"><g><path d="M 30.21875 -31.484375 L 30.21875 0 C 28.84375 0 27.472656 0 26.109375 0 C 24.742188 0 23.367188 0 21.984375 0 L 21.984375 -12.640625 L 12.28125 -12.640625 L 12.28125 0 C 10.894531 0 9.515625 0 8.140625 0 C 6.765625 0 5.398438 0 4.046875 0 L 4.046875 -31.484375 C 5.398438 -31.484375 6.765625 -31.484375 8.140625 -31.484375 C 9.515625 -31.484375 10.894531 -31.484375 12.28125 -31.484375 L 12.28125 -20.0625 L 21.984375 -20.0625 L 21.984375 -31.484375 C 23.367188 -31.484375 24.742188 -31.484375 26.109375 -31.484375 C 27.472656 -31.484375 28.84375 -31.484375 30.21875 -31.484375 Z M 30.21875 -31.484375 "/></g></g></g><g fill="#ffffff" fill-opacity="1"><g transform="translate(170.859258, 91.856062)"><g><path d="M 24.015625 0 L 22.171875 -3.953125 L 9.765625 -3.953125 L 7.921875 0 L 0.046875 0 L 0.046875 -1.171875 L 14.203125 -31.890625 L 17.671875 -31.890625 L 31.890625 -1.171875 L 31.890625 0 Z M 19.5625 -10.84375 L 15.921875 -19.109375 L 12.359375 -10.84375 Z M 19.5625 -10.84375 "/></g></g></g><g fill="#ffffff" fill-opacity="1"><g transform="translate(202.871235, 91.856062)"><g><path d="M 28.203125 0.046875 L 12.328125 -15.46875 L 12.328125 0 C 10.941406 0 9.550781 0 8.15625 0 C 6.769531 0 5.382812 0 4 0 L 4 -31.609375 L 6.921875 -31.609375 L 22.84375 -16.046875 L 22.84375 -31.484375 C 24.21875 -31.484375 25.585938 -31.484375 26.953125 -31.484375 C 28.316406 -31.484375 29.691406 -31.484375 31.078125 -31.484375 L 31.078125 0.046875 Z M 28.203125 0.046875 "/></g></g></g><g fill="#ffffff" fill-opacity="1"><g transform="translate(237.940542, 91.856062)"><g><path d="M 2.0625 -15.734375 C 2.0625 -18.429688 2.523438 -20.785156 3.453125 -22.796875 C 4.390625 -24.804688 5.628906 -26.484375 7.171875 -27.828125 C 8.710938 -29.179688 10.4375 -30.195312 12.34375 -30.875 C 14.25 -31.550781 16.207031 -31.890625 18.21875 -31.890625 C 20.34375 -31.890625 22.414062 -31.5 24.4375 -30.71875 C 26.457031 -29.9375 28.207031 -28.726562 29.6875 -27.09375 C 31.175781 -25.457031 32.175781 -23.335938 32.6875 -20.734375 L 24.78125 -20.734375 C 24.113281 -22.078125 23.25 -23.039062 22.1875 -23.625 C 21.125 -24.21875 19.800781 -24.515625 18.21875 -24.515625 C 16.53125 -24.515625 15.101562 -24.113281 13.9375 -23.3125 C 12.769531 -22.519531 11.882812 -21.460938 11.28125 -20.140625 C 10.6875 -18.828125 10.390625 -17.359375 10.390625 -15.734375 C 10.390625 -13.128906 11.097656 -11.039062 12.515625 -9.46875 C 13.941406 -7.894531 15.84375 -7.109375 18.21875 -7.109375 C 19.832031 -7.109375 21.175781 -7.375 22.25 -7.90625 C 23.332031 -8.445312 24.234375 -9.46875 24.953125 -10.96875 L 18.25 -10.96875 L 18.25 -17.9375 L 33.140625 -17.9375 C 33.234375 -16.382812 33.238281 -14.84375 33.15625 -13.3125 C 33.082031 -11.78125 32.78125 -10.25 32.25 -8.71875 C 31.5 -6.53125 30.390625 -4.769531 28.921875 -3.4375 C 27.453125 -2.101562 25.785156 -1.132812 23.921875 -0.53125 C 22.066406 0.0625 20.164062 0.359375 18.21875 0.359375 C 16.207031 0.359375 14.25 0.0234375 12.34375 -0.640625 C 10.4375 -1.316406 8.710938 -2.320312 7.171875 -3.65625 C 5.628906 -5 4.390625 -6.671875 3.453125 -8.671875 C 2.523438 -10.679688 2.0625 -13.035156 2.0625 -15.734375 Z M 2.0625 -15.734375 "/></g></g></g><g fill="#ffffff" fill-opacity="1"><g transform="translate(273.45945, 91.856062)"><g><path d="M 24.015625 0 L 22.171875 -3.953125 L 9.765625 -3.953125 L 7.921875 0 L 0.046875 0 L 0.046875 -1.171875 L 14.203125 -31.890625 L 17.671875 -31.890625 L 31.890625 -1.171875 L 31.890625 0 Z M 19.5625 -10.84375 L 15.921875 -19.109375 L 12.359375 -10.84375 Z M 19.5625 -10.84375 "/></g></g></g><g clip-path="url(#a4f5c36642)"><g clip-path="url(#5751aa385b)"><g clip-path="url(#7f6d1276c1)"><path fill="#ffea00" d="M 37.03125 117.875 C 84.050781 94.832031 137.277344 101.515625 187.542969 106.054688 C 225.257812 109.363281 263.363281 111.828125 300.9375 105.867188 C 313.4375 103.988281 325.8125 101.222656 338.097656 97.960938 C 323.207031 103.503906 307.714844 107.621094 292.019531 110.328125 C 257.347656 116.34375 221.933594 114.527344 187.074219 111.582031 C 136.570312 106.878906 85.820312 99.136719 37.03125 117.875 Z M 37.03125 117.875 " fill-opacity="1" fill-rule="nonzero"/></g></g></g><g clip-path="url(#7e39d18eef)"><g clip-path="url(#b470a85658)"><g clip-path="url(#f7f00f5877)"><path fill="#ffea00" d="M 305.945312 45.902344 C 306.835938 45.214844 307.628906 44.410156 308.308594 43.507812 C 308.441406 43.335938 308.414062 43.089844 308.246094 42.953125 C 308.222656 42.933594 308.199219 42.917969 308.175781 42.90625 C 306.902344 42.265625 305.375 42.421875 304.257812 43.304688 L 300.050781 46.640625 C 300.027344 46.65625 300 46.664062 299.972656 46.664062 L 294.847656 46.265625 C 294.097656 46.296875 293.382812 46.59375 292.835938 47.113281 C 292.761719 47.179688 292.753906 47.292969 292.820312 47.371094 C 292.84375 47.390625 292.867188 47.410156 292.898438 47.417969 L 297.050781 48.796875 C 297.109375 48.8125 297.136719 48.878906 297.117188 48.933594 C 297.109375 48.957031 297.097656 48.972656 297.082031 48.984375 L 293.53125 51.800781 C 293.4375 51.875 293.308594 51.898438 293.191406 51.859375 L 290.265625 50.90625 C 290.027344 50.828125 289.765625 50.960938 289.6875 51.203125 C 289.640625 51.351562 289.671875 51.515625 289.773438 51.636719 L 292.101562 54.441406 C 292.3125 54.699219 292.648438 54.8125 292.96875 54.742188 C 294.605469 54.386719 296.144531 53.664062 297.457031 52.621094 L 299.921875 50.667969 C 299.972656 50.632812 300.039062 50.640625 300.078125 50.6875 C 300.089844 50.703125 300.097656 50.726562 300.101562 50.746094 L 300.574219 57.15625 C 300.582031 57.257812 300.667969 57.332031 300.769531 57.324219 C 300.796875 57.324219 300.828125 57.3125 300.851562 57.296875 C 301.417969 56.941406 301.84375 56.398438 302.054688 55.761719 L 303.511719 47.859375 C 303.515625 47.832031 303.53125 47.808594 303.550781 47.792969 L 305.945312 45.902344 " fill-opacity="1" fill-rule="nonzero"/></g></g></g><g fill="#ffffff" fill-opacity="1"><g transform="translate(95.512121, 138.662084)"><g><path d="M 3.71875 -13.984375 L 7 -6.078125 L 7.09375 -6.078125 L 10.296875 -13.984375 L 13.734375 -13.984375 L 13.734375 -13.453125 L 7.796875 0.15625 L 6.28125 0.15625 L 0.28125 -13.453125 L 0.28125 -13.984375 Z M 3.71875 -13.984375 "/></g></g></g><g fill="#ffffff" fill-opacity="1"><g transform="translate(124.72861, 138.662084)"><g><path d="M 5.9375 -3.140625 L 7.71875 -3.140625 L 7.71875 0 L 0.625 0 L 0.625 -3.140625 L 2.390625 -3.140625 L 2.390625 -10.875 L 0.765625 -10.875 L 0.765625 -13.984375 L 7.578125 -13.984375 L 7.578125 -10.875 L 5.9375 -10.875 Z M 5.9375 -3.140625 "/></g></g></g><g fill="#ffffff" fill-opacity="1"><g transform="translate(148.190914, 138.662084)"><g><path d="M 10.671875 0 L 9.859375 -1.765625 L 4.34375 -1.765625 L 3.515625 0 L 0.015625 0 L 0.015625 -0.515625 L 6.3125 -14.171875 L 7.859375 -14.171875 L 14.171875 -0.515625 L 14.171875 0 Z M 8.6875 -4.8125 L 7.078125 -8.5 L 5.5 -4.8125 Z M 8.6875 -4.8125 "/></g></g></g><g fill="#ffffff" fill-opacity="1"><g transform="translate(177.607208, 138.662084)"><g><path d="M 0.921875 -7 C 0.921875 -8.195312 1.125 -9.238281 1.53125 -10.125 C 1.945312 -11.019531 2.5 -11.765625 3.1875 -12.359375 C 3.875 -12.960938 4.640625 -13.414062 5.484375 -13.71875 C 6.328125 -14.019531 7.195312 -14.171875 8.09375 -14.171875 C 9.039062 -14.171875 9.960938 -13.992188 10.859375 -13.640625 C 11.753906 -13.296875 12.53125 -12.757812 13.1875 -12.03125 C 13.851562 -11.3125 14.300781 -10.375 14.53125 -9.21875 L 11.015625 -9.21875 C 10.722656 -9.8125 10.335938 -10.238281 9.859375 -10.5 C 9.390625 -10.757812 8.800781 -10.890625 8.09375 -10.890625 C 7.34375 -10.890625 6.707031 -10.710938 6.1875 -10.359375 C 5.675781 -10.003906 5.285156 -9.535156 5.015625 -8.953125 C 4.742188 -8.367188 4.609375 -7.71875 4.609375 -7 C 4.609375 -5.832031 4.925781 -4.898438 5.5625 -4.203125 C 6.195312 -3.503906 7.039062 -3.15625 8.09375 -3.15625 C 8.8125 -3.15625 9.410156 -3.273438 9.890625 -3.515625 C 10.367188 -3.753906 10.769531 -4.207031 11.09375 -4.875 L 8.109375 -4.875 L 8.109375 -7.96875 L 14.734375 -7.96875 C 14.765625 -7.28125 14.765625 -6.59375 14.734375 -5.90625 C 14.703125 -5.226562 14.566406 -4.550781 14.328125 -3.875 C 13.992188 -2.90625 13.5 -2.125 12.84375 -1.53125 C 12.195312 -0.9375 11.457031 -0.503906 10.625 -0.234375 C 9.800781 0.0234375 8.957031 0.15625 8.09375 0.15625 C 7.195312 0.15625 6.328125 0.0078125 5.484375 -0.28125 C 4.640625 -0.582031 3.875 -1.03125 3.1875 -1.625 C 2.5 -2.21875 1.945312 -2.960938 1.53125 -3.859375 C 1.125 -4.753906 0.921875 -5.800781 0.921875 -7 Z M 0.921875 -7 "/></g></g></g><g fill="#ffffff" fill-opacity="1"><g transform="translate(208.581925, 138.662084)"><g><path d="M 10.515625 -13.984375 C 10.515625 -13.460938 10.515625 -12.9375 10.515625 -12.40625 C 10.515625 -11.875 10.515625 -11.335938 10.515625 -10.796875 C 9.816406 -10.796875 9.207031 -10.796875 8.6875 -10.796875 C 8.164062 -10.796875 7.648438 -10.796875 7.140625 -10.796875 C 6.628906 -10.796875 6.023438 -10.796875 5.328125 -10.796875 L 5.328125 -8.8125 L 10.09375 -8.8125 C 10.09375 -8.28125 10.09375 -7.75 10.09375 -7.21875 C 10.09375 -6.695312 10.09375 -6.171875 10.09375 -5.640625 L 5.328125 -5.640625 C 5.328125 -5.222656 5.328125 -4.8125 5.328125 -4.40625 C 5.328125 -4.007812 5.328125 -3.597656 5.328125 -3.171875 C 6.023438 -3.171875 6.644531 -3.171875 7.1875 -3.171875 C 7.726562 -3.171875 8.273438 -3.171875 8.828125 -3.171875 C 9.378906 -3.171875 10 -3.171875 10.6875 -3.171875 C 10.6875 -2.648438 10.6875 -2.125 10.6875 -1.59375 C 10.6875 -1.0625 10.6875 -0.53125 10.6875 0 C 9.59375 0 8.570312 0 7.625 0 C 6.6875 0 5.742188 0 4.796875 0 C 3.859375 0 2.851562 0 1.78125 0 C 1.78125 -2.34375 1.78125 -4.679688 1.78125 -7.015625 C 1.78125 -9.347656 1.78125 -11.671875 1.78125 -13.984375 C 2.851562 -13.984375 3.847656 -13.984375 4.765625 -13.984375 C 5.679688 -13.984375 6.59375 -13.984375 7.5 -13.984375 C 8.414062 -13.984375 9.421875 -13.984375 10.515625 -13.984375 Z M 10.515625 -13.984375 "/></g></g></g><g fill="#ffffff" fill-opacity="1"><g transform="translate(235.76048, 138.662084)"><g><path d="M 12.53125 0.015625 L 5.46875 -6.875 L 5.46875 0 C 4.863281 0 4.25 0 3.625 0 C 3.007812 0 2.394531 0 1.78125 0 L 1.78125 -14.046875 L 3.078125 -14.046875 L 10.15625 -7.140625 L 10.15625 -13.984375 C 10.769531 -13.984375 11.378906 -13.984375 11.984375 -13.984375 C 12.585938 -13.984375 13.195312 -13.984375 13.8125 -13.984375 L 13.8125 0.015625 Z M 12.53125 0.015625 "/></g></g></g><g fill="#ffffff" fill-opacity="1"><g transform="translate(266.535393, 138.662084)"><g><path d="M 4.25 -4.28125 C 4.25 -3.914062 4.394531 -3.625 4.6875 -3.40625 C 4.988281 -3.195312 5.359375 -3.050781 5.796875 -2.96875 C 6.234375 -2.894531 6.664062 -2.882812 7.09375 -2.9375 C 7.53125 -3 7.894531 -3.128906 8.1875 -3.328125 C 8.488281 -3.523438 8.640625 -3.785156 8.640625 -4.109375 C 8.640625 -4.441406 8.519531 -4.695312 8.28125 -4.875 C 8.050781 -5.050781 7.742188 -5.175781 7.359375 -5.25 C 6.972656 -5.320312 6.546875 -5.367188 6.078125 -5.390625 C 5.066406 -5.472656 4.179688 -5.65625 3.421875 -5.9375 C 2.660156 -6.226562 2.066406 -6.671875 1.640625 -7.265625 C 1.222656 -7.867188 1.007812 -8.675781 1 -9.6875 C 0.988281 -10.550781 1.171875 -11.289062 1.546875 -11.90625 C 1.929688 -12.519531 2.4375 -13.015625 3.0625 -13.390625 C 3.695312 -13.765625 4.394531 -14.007812 5.15625 -14.125 C 5.925781 -14.25 6.691406 -14.25 7.453125 -14.125 C 8.222656 -14.007812 8.925781 -13.765625 9.5625 -13.390625 C 10.207031 -13.015625 10.722656 -12.519531 11.109375 -11.90625 C 11.492188 -11.289062 11.679688 -10.550781 11.671875 -9.6875 C 11.046875 -9.6875 10.472656 -9.6875 9.953125 -9.6875 C 9.441406 -9.6875 8.882812 -9.6875 8.28125 -9.6875 C 8.28125 -10.0625 8.148438 -10.351562 7.890625 -10.5625 C 7.640625 -10.78125 7.320312 -10.921875 6.9375 -10.984375 C 6.5625 -11.054688 6.179688 -11.050781 5.796875 -10.96875 C 5.421875 -10.894531 5.097656 -10.753906 4.828125 -10.546875 C 4.566406 -10.335938 4.421875 -10.066406 4.390625 -9.734375 C 4.367188 -9.390625 4.457031 -9.117188 4.65625 -8.921875 C 4.851562 -8.734375 5.125 -8.597656 5.46875 -8.515625 C 5.820312 -8.429688 6.203125 -8.363281 6.609375 -8.3125 C 7.304688 -8.226562 7.976562 -8.125 8.625 -8 C 9.28125 -7.875 9.867188 -7.675781 10.390625 -7.40625 C 10.921875 -7.132812 11.335938 -6.734375 11.640625 -6.203125 C 11.953125 -5.679688 12.109375 -4.976562 12.109375 -4.09375 C 12.109375 -3.257812 11.898438 -2.539062 11.484375 -1.9375 C 11.078125 -1.34375 10.535156 -0.859375 9.859375 -0.484375 C 9.191406 -0.117188 8.453125 0.117188 7.640625 0.234375 C 6.828125 0.359375 6.015625 0.359375 5.203125 0.234375 C 4.398438 0.109375 3.664062 -0.140625 3 -0.515625 C 2.332031 -0.890625 1.796875 -1.390625 1.390625 -2.015625 C 0.984375 -2.640625 0.785156 -3.394531 0.796875 -4.28125 C 1.398438 -4.28125 1.972656 -4.28125 2.515625 -4.28125 C 3.066406 -4.28125 3.644531 -4.28125 4.25 -4.28125 Z M 4.25 -4.28125 "/></g></g></g></svg>