<svg xmlns="http://www.w3.org/2000/svg" xmlns:xlink="http://www.w3.org/1999/xlink" width="500" zoomAndPan="magnify" viewBox="0 0 375 374.999991" height="500" preserveAspectRatio="xMidYMid meet" version="1.0"><defs><clipPath id="65cf1480ad"><path d="M 9 52 L 361 52 L 361 330 L 9 330 Z M 9 52 " clip-rule="nonzero"/></clipPath><clipPath id="ca8940bb1e"><path d="M -13.890625 130.0625 L 354.148438 37.5 L 415.0625 279.707031 L 47.023438 372.269531 Z M -13.890625 130.0625 " clip-rule="nonzero"/></clipPath><clipPath id="fc08404074"><path d="M -13.890625 130.0625 L 354.148438 37.5 L 415.0625 279.707031 L 47.023438 372.269531 Z M -13.890625 130.0625 " clip-rule="nonzero"/></clipPath></defs><g clip-path="url(#65cf1480ad)"><g clip-path="url(#ca8940bb1e)"><g clip-path="url(#fc08404074)"><path fill="#ffea00" d="M 314.394531 115.757812 C 331.066406 102.847656 345.949219 87.761719 358.648438 70.875 C 361.195312 67.675781 360.679688 62.996094 357.476562 60.449219 C 357.046875 60.105469 356.628906 59.832031 356.191406 59.59375 C 332.347656 47.574219 303.6875 50.492188 282.78125 67.0625 L 203.882812 129.578125 C 203.476562 129.890625 202.964844 130.050781 202.4375 130.011719 L 106.433594 122.582031 C 92.351562 123.117188 78.960938 128.730469 68.703125 138.402344 C 67.289062 139.65625 67.179688 141.828125 68.433594 143.242188 C 68.816406 143.664062 69.28125 143.996094 69.839844 144.167969 L 147.675781 169.964844 C 148.765625 170.3125 149.304688 171.492188 148.957031 172.582031 C 148.808594 172.964844 148.582031 173.296875 148.257812 173.519531 L 81.734375 226.25 C 79.949219 227.667969 77.535156 228.101562 75.34375 227.375 L 20.542969 209.546875 C 16.023438 208.089844 11.179688 210.554688 9.722656 215.070312 C 8.800781 217.859375 9.398438 220.925781 11.28125 223.1875 L 54.945312 275.800781 C 58.882812 280.589844 65.164062 282.742188 71.199219 281.433594 C 101.898438 274.785156 130.671875 261.183594 155.300781 241.675781 L 201.527344 205.046875 C 202.429688 204.371094 203.714844 204.53125 204.421875 205.421875 C 204.640625 205.75 204.804688 206.121094 204.839844 206.53125 L 213.710938 326.652344 C 213.84375 328.558594 215.480469 329.976562 217.378906 329.8125 C 217.921875 329.78125 218.46875 329.609375 218.945312 329.316406 C 229.535156 322.605469 237.492188 312.441406 241.453125 300.550781 L 268.773438 152.441406 C 268.851562 151.9375 269.121094 151.492188 269.492188 151.1875 L 314.394531 115.757812 " fill-opacity="1" fill-rule="nonzero"/></g></g></g></svg>